<svg width="40" height="40" viewBox="0 0 40 40" fill="none" xmlns="http://www.w3.org/2000/svg">
<g filter="url(#filter0_d_719_23550)">
<circle cx="20" cy="18" r="12" fill="#262626"/>
</g>
<path d="M25.7 21.89L21.82 18L25.71 14.11C26.1 13.72 26.1 13.09 25.71 12.7C25.32 12.31 24.69 12.31 24.3 12.7L19.71 17.29C19.32 17.68 19.32 18.31 19.71 18.7L24.3 23.29C24.69 23.68 25.32 23.68 25.71 23.29C26.09 22.91 26.09 22.27 25.7 21.89ZM15 12C15.55 12 16 12.45 16 13V23C16 23.55 15.55 24 15 24C14.45 24 14 23.55 14 23V13C14 12.45 14.45 12 15 12Z" fill="white"/>
<defs>
<filter id="filter0_d_719_23550" x="0" y="0" width="40" height="40" filterUnits="userSpaceOnUse" color-interpolation-filters="sRGB">
<feFlood flood-opacity="0" result="BackgroundImageFix"/>
<feColorMatrix in="SourceAlpha" type="matrix" values="0 0 0 0 0 0 0 0 0 0 0 0 0 0 0 0 0 0 127 0" result="hardAlpha"/>
<feOffset dy="2"/>
<feGaussianBlur stdDeviation="4"/>
<feColorMatrix type="matrix" values="0 0 0 0 0.337255 0 0 0 0 0.337255 0 0 0 0 0.337255 0 0 0 0.15 0"/>
<feBlend mode="normal" in2="BackgroundImageFix" result="effect1_dropShadow_719_23550"/>
<feBlend mode="normal" in="SourceGraphic" in2="effect1_dropShadow_719_23550" result="shape"/>
</filter>
</defs>
</svg>
